<svg xmlns="http://www.w3.org/2000/svg" viewBox="0 0 32 32">
  <defs>
    <linearGradient id="g1" x1="0" y1="0" x2="0" y2="1">
      <stop offset="0%" stop-color="#4AABFF"/>
      <stop offset="100%" stop-color="#1E8FFF"/>
    </linearGradient>
    <linearGradient id="g2" x1="0" y1="0" x2="0" y2="1">
      <stop offset="0%" stop-color="#1E8FFF"/>
      <stop offset="100%" stop-color="#1470CC"/>
    </linearGradient>
    <linearGradient id="g3" x1="0" y1="0" x2="0" y2="1">
      <stop offset="0%" stop-color="#1470CC"/>
      <stop offset="100%" stop-color="#0A4E8C"/>
    </linearGradient>
  </defs>
  <rect width="32" height="32" rx="6" fill="#060E1A"/>
  <!-- Top cube -->
  <path d="M16 4 L22 7.5 L16 11 L10 7.5 Z" fill="url(#g1)" opacity="0.95"/>
  <path d="M16 11 L22 7.5 L22 11.5 L16 15 Z" fill="#1470CC" opacity="0.8"/>
  <path d="M16 11 L10 7.5 L10 11.5 L16 15 Z" fill="#1E8FFF" opacity="0.9"/>
  <!-- Middle cube -->
  <path d="M16 11 L22 14.5 L16 18 L10 14.5 Z" fill="url(#g2)" opacity="0.95"/>
  <path d="M16 18 L22 14.5 L22 18.5 L16 22 Z" fill="#1470CC" opacity="0.8"/>
  <path d="M16 18 L10 14.5 L10 18.5 L16 22 Z" fill="#1E8FFF" opacity="0.9"/>
  <!-- Bottom cube -->
  <path d="M16 18 L22 21.5 L16 25 L10 21.5 Z" fill="url(#g3)" opacity="0.95"/>
  <path d="M16 25 L22 21.5 L22 25.5 L16 29 Z" fill="#0A4E8C" opacity="0.8"/>
  <path d="M16 25 L10 21.5 L10 25.5 L16 29 Z" fill="#1470CC" opacity="0.9"/>
</svg>
